<?xml version="1.0" encoding="UTF-8" standalone="no" ?>
<!DOCTYPE svg PUBLIC "-//W3C//DTD SVG 1.1//EN" "http://www.w3.org/Graphics/SVG/1.1/DTD/svg11.dtd">
<svg xmlns="http://www.w3.org/2000/svg" version="1.1" width="500" height="500" viewBox="0 0 500 500"
	 xml:space="preserve">
<desc>Created with Fabric.js 3.6.3</desc>
<defs>
</defs>
<g transform="matrix(0.67 0 0 0.67 250.1 250.1)"  >
<g style=""   >
		<g transform="matrix(1 0 0 1 0 0)"  >
<circle style="stroke: none; stroke-width: 1; stroke-dasharray: none; stroke-linecap: butt; stroke-dashoffset: 0; stroke-linejoin: miter; stroke-miterlimit: 4; fill: rgb(172,217,234); fill-rule: nonzero; opacity: 1;"  cx="0" cy="0" r="249.2" />
</g>
		<g transform="matrix(1 0 0 1 1 2.6)"  >
<path style="stroke: none; stroke-width: 1; stroke-dasharray: none; stroke-linecap: butt; stroke-dashoffset: 0; stroke-linejoin: miter; stroke-miterlimit: 4; fill: rgb(244,239,239); fill-rule: nonzero; opacity: 1;"  transform=" translate(-254.2, -255.8)" d="M 253.2 332.4 c -10.8 0 -20 -8.8 -20 -19.6 v -36 c 0 -10.8 8.8 -19.6 20 -19.6 c 28 0 51.2 -22.8 51.2 -50.8 s -22.8 -50.8 -50.8 -50.8 s -50.8 22.8 -50.8 50.8 c 0 10.8 -8.8 19.6 -19.6 19.6 s -19.6 -8.8 -19.6 -19.6 c 0 -50 40.8 -90.4 90.4 -90.4 s 90.8 40.8 90.8 90.4 c 0 43.2 -26.8 79.2 -70.8 88.4 v 18.4 c -0.8 10.4 -10 19.2 -20.8 19.2 z m -0.8 63.2 c -5.2 0 -10.4 -2 -14 -6 c -3.6 -3.6 -5.6 -8.8 -5.6 -14 s 2 -10.4 5.6 -14 s 8.8 -5.6 14 -5.6 s 10.4 2 14 5.6 s 6 8.8 6 14 s -2 10.4 -6 14 c -4 4 -8.8 6 -14 6 z" stroke-linecap="round" />
</g>
		<g transform="matrix(1 0 0 1 0 0)"  >
<path style="stroke: none; stroke-width: 1; stroke-dasharray: none; stroke-linecap: butt; stroke-dashoffset: 0; stroke-linejoin: miter; stroke-miterlimit: 4; fill: rgb(0,0,0); fill-rule: nonzero; opacity: 1;"  transform=" translate(-253.2, -253.2)" d="M 253.2 506.4 C 113.6 506.4 0 392.8 0 253.2 S 113.6 0 253.2 0 s 253.2 113.6 253.2 253.2 s -113.6 253.2 -253.2 253.2 z m 0 -498.4 C 118 8 8 118 8 253.2 s 110 245.2 245.2 245.2 s 245.2 -110 245.2 -245.2 S 388.4 8 253.2 8 z" stroke-linecap="round" />
</g>
		<g transform="matrix(1 0 0 1 -0.8 2.6)"  >
<path style="stroke: none; stroke-width: 1; stroke-dasharray: none; stroke-linecap: butt; stroke-dashoffset: 0; stroke-linejoin: miter; stroke-miterlimit: 4; fill: rgb(0,0,0); fill-rule: nonzero; opacity: 1;"  transform=" translate(-252.4, -255.8)" d="M 249.2 336.4 c -13.2 0 -24 -10.8 -24 -23.6 v -36 c 0 -12.8 12 -23.6 26 -23.6 c 26 0 48 -21.6 48 -46.8 c 0 -26 -20.8 -46.8 -46.4 -46.8 c -25.6 0 -46.8 21.2 -46.8 46.8 c 0 13.2 -10.8 23.6 -23.6 23.6 c -13.2 0 -23.6 -10.8 -23.6 -23.6 c 0 -52 42.4 -94.4 94.4 -94.4 s 92.8 41.6 92.8 94.4 c 0 44.8 -29.2 81.2 -72.8 91.6 v 15.2 c 0 12.4 -10.8 23.2 -24 23.2 z m 3.6 -185.6 c 30 0 54.4 24.8 54.4 54.8 c 0 29.6 -25.6 54.8 -56 54.8 c -8.4 0 -18 6.8 -18 15.6 v 36 c 0 8.8 7.2 15.6 16 15.6 s 16 -7.2 16 -15.6 v -18.4 c 0 -2 1.2 -3.6 3.2 -4 c 41.6 -8.4 69.6 -42.4 69.6 -84.4 c 0 -48.4 -37.2 -86.4 -84.8 -86.4 s -86.4 38.8 -86.4 86.4 c 0 8.8 7.2 15.6 15.6 15.6 c 8.8 0 15.6 -7.2 15.6 -15.6 c 0 -30 24.4 -54.4 54.8 -54.4 z m -0.4 248.8 c -6.4 0 -12.4 -2.4 -16.8 -7.2 c -4.4 -4.4 -6.8 -10.4 -6.8 -16.8 s 2.4 -12.4 6.8 -16.8 s 10.4 -6.8 16.8 -6.8 s 12.4 2.4 16.8 6.8 s 6.8 10.8 6.8 16.8 c 0 6.4 -2.4 12.4 -6.8 16.8 c -4.4 4.8 -10.8 7.2 -16.8 7.2 z m 0 -39.6 c -4 0 -8.4 1.6 -11.2 4.8 c -2.8 2.8 -4.4 6.8 -4.4 11.2 s 1.6 8.4 4.4 11.2 c 2.8 2.8 7.2 4.8 11.2 4.8 s 8.4 -1.6 11.2 -4.8 c 2.8 -2.8 4.8 -7.2 4.8 -11.2 s -1.6 -8 -4.8 -11.2 c -3.2 -3.2 -7.2 -4.8 -11.2 -4.8 z" stroke-linecap="round" />
</g>
</g>
</g>
</svg>